<svg
  xmlns="http://www.w3.org/2000/svg"
  width="24"
  height="24"
  viewBox="0 0 24 24"
  fill="none"
  stroke="currentColor"
  stroke-width="1.5"
  stroke-linecap="round"
  stroke-linejoin="round"
>
  <path d="M15 7.13V6a3 3 0 0 0-5.14-2.1L8 2"  vector-effect="non-scaling-stroke"/>
  <path d="M14.12 3.88 16 2"  vector-effect="non-scaling-stroke"/>
  <path d="M22 13h-4v-2a4 4 0 0 0-4-4h-1.3"  vector-effect="non-scaling-stroke"/>
  <path d="M20.97 5c0 2.1-1.6 3.8-3.5 4"  vector-effect="non-scaling-stroke"/>
  <path d="m2 2 20 20"  vector-effect="non-scaling-stroke"/>
  <path d="M7.7 7.7A4 4 0 0 0 6 11v3a6 6 0 0 0 11.13 3.13"  vector-effect="non-scaling-stroke"/>
  <path d="M12 20v-8"  vector-effect="non-scaling-stroke"/>
  <path d="M6 13H2"  vector-effect="non-scaling-stroke"/>
  <path d="M3 21c0-2.1 1.7-3.9 3.8-4"  vector-effect="non-scaling-stroke"/>
</svg>
