<svg
  xmlns="http://www.w3.org/2000/svg"
  width="24"
  height="24"
  viewBox="0 0 24 24"
  fill="none"
  stroke="currentColor"
  stroke-width="1.4"
  stroke-linecap="round"
  stroke-linejoin="round"
>
  <path d="M12 17v4"  vector-effect="non-scaling-stroke"/>
  <path d="m14.305 7.53.923-.382"  vector-effect="non-scaling-stroke"/>
  <path d="m15.228 4.852-.923-.383"  vector-effect="non-scaling-stroke"/>
  <path d="m16.852 3.228-.383-.924"  vector-effect="non-scaling-stroke"/>
  <path d="m16.852 8.772-.383.923"  vector-effect="non-scaling-stroke"/>
  <path d="m19.148 3.228.383-.924"  vector-effect="non-scaling-stroke"/>
  <path d="m19.53 9.696-.382-.924"  vector-effect="non-scaling-stroke"/>
  <path d="m20.772 4.852.924-.383"  vector-effect="non-scaling-stroke"/>
  <path d="m20.772 7.148.924.383"  vector-effect="non-scaling-stroke"/>
  <path d="M22 13v2a2 2 0 0 1-2 2H4a2 2 0 0 1-2-2V5a2 2 0 0 1 2-2h7"  vector-effect="non-scaling-stroke"/>
  <path d="M8 21h8"  vector-effect="non-scaling-stroke"/>
  <circle cx="18" cy="6" r="3"  vector-effect="non-scaling-stroke"/>
</svg>
