<svg
  xmlns="http://www.w3.org/2000/svg"
  width="24"
  height="24"
  viewBox="0 0 24 24"
  fill="none"
  stroke="currentColor"
  stroke-width="1.5"
  stroke-linecap="round"
  stroke-linejoin="round"
>
  <path d="M8 2v4"  vector-effect="non-scaling-stroke"/>
  <path d="M12 2v4"  vector-effect="non-scaling-stroke"/>
  <path d="M16 2v4"  vector-effect="non-scaling-stroke"/>
  <path d="M16 4h2a2 2 0 0 1 2 2v2"  vector-effect="non-scaling-stroke"/>
  <path d="M20 12v2"  vector-effect="non-scaling-stroke"/>
  <path d="M20 18v2a2 2 0 0 1-2 2h-1"  vector-effect="non-scaling-stroke"/>
  <path d="M13 22h-2"  vector-effect="non-scaling-stroke"/>
  <path d="M7 22H6a2 2 0 0 1-2-2v-2"  vector-effect="non-scaling-stroke"/>
  <path d="M4 14v-2"  vector-effect="non-scaling-stroke"/>
  <path d="M4 8V6a2 2 0 0 1 2-2h2"  vector-effect="non-scaling-stroke"/>
  <path d="M8 10h6"  vector-effect="non-scaling-stroke"/>
  <path d="M8 14h8"  vector-effect="non-scaling-stroke"/>
  <path d="M8 18h5"  vector-effect="non-scaling-stroke"/>
</svg>
