<svg width="16" height="16" viewBox="0 0 16 16" fill="none" xmlns="http://www.w3.org/2000/svg">
<path d="M6.36909 4.97403C6.63066 4.77059 6.67778 4.39362 6.47434 4.13205C6.2709 3.87049 5.89393 3.82336 5.63237 4.02681L0.523438 8.00042L5.63237 11.974C5.89393 12.1775 6.2709 12.1304 6.47434 11.8688C6.67778 11.6072 6.63066 11.2302 6.36909 11.0268L2.47802 8.00042L6.36909 4.97403Z" fill="#2F9E49"/>
<path d="M9.63237 4.97403C9.3708 4.77059 9.32368 4.39362 9.52712 4.13205C9.73056 3.87049 10.1075 3.82336 10.3691 4.02681L15.478 8.00042L10.3691 11.974C10.1075 12.1775 9.73056 12.1304 9.52712 11.8688C9.32368 11.6072 9.3708 11.2302 9.63237 11.0268L13.5234 8.00042L9.63237 4.97403Z" fill="#2F9E49"/>
</svg>
