<svg width="16" height="16" viewBox="0 0 16 16" fill="none" xmlns="http://www.w3.org/2000/svg">
<g clip-path="url(#clip0_365_2)">
<path d="M0.921952 10.1167C0.593827 9.09473 0.499577 8.01561 0.688577 6.90536C0.770577 6.44486 0.897077 6.00298 1.0357 5.55523C1.0357 5.55523 1.90633 2.69736 4.85258 1.39123C4.85258 1.39123 5.8682 0.854985 7.39508 0.817485C7.39508 0.817485 7.18708 0.61536 7.05433 0.526985C6.33508 0.047485 5.26283 -0.110265 4.61295 0.56511C4.41708 0.766735 4.25295 0.98786 4.07045 1.18961C3.86195 1.41661 3.60945 1.60611 3.31945 1.71299C3.06695 1.80774 2.81445 1.78873 2.5562 1.83311C2.2912 1.87711 2.01958 1.97186 1.80533 2.14224C1.57183 2.33174 1.4772 2.58361 1.4522 2.87411C1.42683 3.10123 1.4332 3.33461 1.42045 3.56161C1.38883 4.23061 1.17445 4.41961 0.694952 4.79211C0.493202 4.94348 0.322827 5.14511 0.196327 5.35998C-0.182048 6.02848 0.423827 6.72223 0.455077 7.39761C0.461577 7.53636 0.448827 7.67498 0.398577 7.80773C0.347702 7.95273 0.247202 8.04748 0.165077 8.16711C0.0513267 8.32498 -0.0242983 8.51436 0.00757666 8.70961C0.0388267 8.90548 0.139827 9.08848 0.234577 9.25898C0.417702 9.56173 0.644702 9.83274 0.884577 10.0915C0.897077 10.0915 0.909452 10.1041 0.922077 10.1169" fill="#E32186"/>
<path d="M12.9601 12.5388C14.4112 11.9079 15.0294 10.8166 15.0294 10.8166C16.3859 8.968 15.9254 7.01875 15.9254 7.01875C15.0612 8.89863 14.2721 9.41625 14.2721 9.41625C16.3986 6.17938 14.2848 4.22388 14.2848 4.22388C15.1491 6.06613 14.0011 8.31175 14.0011 8.31175C13.0357 10.3435 11.6666 11.0691 11.6666 11.0691C13.1934 11.3529 14.3166 10.3245 14.3166 10.3245C12.1269 12.6903 9.75495 12.577 9.75495 12.577C10.7521 13.6938 12.2472 13.599 12.2472 13.599C10.2916 14.0594 8.4557 13.4095 6.94782 12.154C6.66227 11.9198 6.39251 11.667 6.14032 11.3973C6.14032 11.3973 5.9132 11.1575 5.8687 11.0945L5.86245 11.0883C5.8312 12.2551 7.04845 13.3401 7.04845 13.3401C5.52157 12.7094 4.82145 11.3401 4.82145 11.3401C4.82145 11.3401 3.79307 9.58638 4.5377 7.58675C5.28182 5.58675 7.53432 5.1575 7.53432 5.1575C9.3957 6.06 10.9728 6.34363 10.9728 6.34363C14.2976 6.89875 14.1086 5.27138 14.1086 5.27138C14.1398 3.8705 12.0266 2.38175 12.0266 2.38175C8.25995 -0.413248 4.8532 1.391 4.8532 1.391C1.90695 2.69713 1.03632 5.555 1.03632 5.555C0.897574 6.00275 0.771324 6.44463 0.689199 6.905C0.367449 8.77913 0.853199 10.5516 1.90695 12.1293C3.54707 14.577 6.2097 15.4223 6.2097 15.4223C10.1526 16.7596 12.8464 14.7914 12.8464 14.7914C15.3259 13.0876 15.8244 11.1195 15.8244 11.1195C13.8244 12.6845 12.9602 12.5389 12.9602 12.5389L12.9601 12.5388ZM9.88145 3.33413C9.92624 3.33396 9.97061 3.34267 10.012 3.35975C10.0534 3.37683 10.091 3.40194 10.1227 3.43363C10.1543 3.46532 10.1794 3.50297 10.1964 3.5444C10.2134 3.58583 10.2221 3.63022 10.2218 3.675C10.222 3.71975 10.2134 3.7641 10.1963 3.80547C10.1793 3.84685 10.1542 3.88445 10.1226 3.91608C10.0909 3.94772 10.0533 3.97277 10.0119 3.98979C9.97055 4.00681 9.9262 4.01547 9.88145 4.01525C9.83667 4.01548 9.79229 4.00685 9.75087 3.98984C9.70945 3.97283 9.67181 3.94778 9.64012 3.91615C9.60843 3.88452 9.58332 3.84692 9.56623 3.80553C9.54915 3.76414 9.54042 3.71978 9.54057 3.675C9.54036 3.63018 9.54903 3.58576 9.56608 3.5443C9.58314 3.50285 9.60824 3.46518 9.63993 3.43349C9.67163 3.40179 9.70929 3.37669 9.75075 3.35964C9.7922 3.34258 9.83663 3.33391 9.88145 3.33413Z" fill="url(#paint0_linear_365_2)"/>
<path d="M14.1013 5.26514C14.1326 3.86426 12.0193 2.37551 12.0193 2.37551C8.25269 -0.413112 4.84594 1.39114 4.84594 1.39114C1.89969 2.69726 1.02907 5.55514 1.02907 5.55514C0.858694 6.04101 0.707319 6.78564 0.707319 6.78564C0.524194 7.71926 0.606194 8.58351 0.606194 8.58351C0.681944 9.41014 0.864944 9.96539 0.864944 9.96539C1.05444 10.5581 1.14244 10.7413 1.14244 10.7413C1.13644 10.7221 1.10482 10.5835 1.10482 10.5835C1.10482 10.5835 0.839569 9.30914 1.08569 8.08501C1.08569 8.08501 1.30007 6.81064 2.17119 5.82676C2.17119 5.82676 3.58432 3.81401 6.21519 4.60264C6.21519 4.60264 6.78307 4.80476 6.97832 4.90539C7.17419 5.00014 7.51457 5.14514 7.51457 5.14514C9.37582 6.04751 10.9529 6.33114 10.9529 6.33114C14.2904 6.89264 14.1014 5.26526 14.1014 5.26526L14.1013 5.26514ZM9.88057 4.02201C9.83578 4.02224 9.79139 4.0136 9.74996 3.99658C9.70854 3.97957 9.67089 3.95451 9.63919 3.92287C9.6075 3.89122 9.58239 3.85361 9.56531 3.81221C9.54824 3.7708 9.53953 3.72643 9.53969 3.68164C9.53948 3.63681 9.54815 3.59239 9.5652 3.55094C9.58226 3.50948 9.60736 3.47182 9.63905 3.44012C9.67075 3.40843 9.70841 3.38333 9.74987 3.36627C9.79132 3.34922 9.83574 3.34055 9.88057 3.34076C9.92536 3.3406 9.96973 3.3493 10.0111 3.36638C10.0525 3.38346 10.0902 3.40857 10.1218 3.44026C10.1534 3.47196 10.1785 3.5096 10.1955 3.55103C10.2125 3.59246 10.2212 3.63685 10.2209 3.68164C10.2212 3.7264 10.2125 3.77075 10.1955 3.81215C10.1784 3.85354 10.1534 3.89115 10.1217 3.9228C10.0901 3.95445 10.0525 3.97951 10.0111 3.99654C9.96969 4.01357 9.92533 4.02223 9.88057 4.02201Z" fill="url(#paint1_radial_365_2)"/>
<path d="M7.72304 2.72901L5.57167 2.06001C5.55892 2.06001 5.49604 2.02826 5.38216 2.06001C5.38216 2.06001 4.11404 2.38188 4.33491 3.07563C4.33491 3.07563 4.46766 3.51126 4.82704 3.93363L7.19279 3.82026L7.72304 2.72901Z" fill="url(#paint2_linear_365_2)"/>
</g>
<defs>
<linearGradient id="paint0_linear_365_2" x1="2.42964" y1="14.6844" x2="10.2802" y2="6.33254" gradientUnits="userSpaceOnUse">
<stop stop-color="#DF1C84"/>
<stop offset="0.401" stop-color="#DE1C85"/>
<stop offset="0.77" stop-color="#932C86"/>
<stop offset="1" stop-color="#5C2F87"/>
</linearGradient>
<radialGradient id="paint1_radial_365_2" cx="0" cy="0" r="1" gradientUnits="userSpaceOnUse" gradientTransform="translate(11.0708 4.11691) rotate(0.136224) scale(7.6705 6.41397)">
<stop stop-color="#DF1C84"/>
<stop offset="0.139" stop-color="#DE1E85"/>
<stop offset="0.285" stop-color="#D62085"/>
<stop offset="0.434" stop-color="#C82286"/>
<stop offset="0.586" stop-color="#B72786"/>
<stop offset="0.739" stop-color="#9C2A86"/>
<stop offset="0.891" stop-color="#7C2E87"/>
<stop offset="1" stop-color="#5C2F87"/>
</radialGradient>
<linearGradient id="paint2_linear_365_2" x1="4.30426" y1="2.98979" x2="7.72109" y2="2.98979" gradientUnits="userSpaceOnUse">
<stop stop-color="#DF1C84"/>
<stop offset="0.238" stop-color="#D91E85"/>
<stop offset="0.658" stop-color="#C72085"/>
<stop offset="0.999" stop-color="#B42184"/>
</linearGradient>
<clipPath id="clip0_365_2">
<rect width="16" height="16" fill="white"/>
</clipPath>
</defs>
</svg>
