<svg width="20" height="21" viewBox="0 0 20 21" fill="none" xmlns="http://www.w3.org/2000/svg">
<g clip-path="url(#clip0_4221_3)">
<path d="M10 0.141602C15.5228 0.141602 20 4.61875 20 10.1416C20 15.6644 15.5228 20.1416 10 20.1416C4.47715 20.1416 0 15.6644 0 10.1416C0 4.61875 4.47715 0.141602 10 0.141602ZM17.0703 3.07031C14.9255 4.46004 12.2221 5.64102 9.99902 5.6416C7.77648 5.64143 5.07256 4.45958 2.92773 3.07227C4.31619 5.21585 5.49832 7.91944 5.49902 10.1426C5.49854 12.3644 4.31863 15.0698 2.92969 17.2139C5.07446 15.8256 7.77628 14.6416 10 14.6416C12.2226 14.6429 14.9266 15.8247 17.0713 17.2129C15.6824 15.0677 14.5011 12.3654 14.501 10.1416C14.5003 7.91846 15.682 5.21506 17.0703 3.07031Z" fill="white"/>
</g>
<defs>
<clipPath id="clip0_4221_3">
<rect y="0.141602" width="20" height="20" rx="10" fill="white"/>
</clipPath>
</defs>
</svg>
