<svg width="20" height="20" viewBox="0 0 20 20" fill="none" xmlns="http://www.w3.org/2000/svg">
<g clip-path="url(#clip0_4221_15)">
<rect width="20" height="20" rx="10" fill="white"/>
<mask id="mask0_4221_15" style="mask-type:alpha" maskUnits="userSpaceOnUse" x="0" y="0" width="20" height="20">
<path d="M10 0C15.5228 0 20 4.47715 20 10C20 15.5228 15.5228 20 10 20C4.47715 20 0 15.5228 0 10C0 4.47715 4.47715 0 10 0ZM17.0703 2.92871C14.9255 4.31844 12.2221 5.49942 9.99902 5.5C7.77648 5.49983 5.07256 4.31798 2.92773 2.93066C4.31619 5.07425 5.49832 7.77784 5.49902 10.001C5.49854 12.2228 4.31863 14.9282 2.92969 17.0723C5.07446 15.684 7.77628 14.5 10 14.5C12.2226 14.5013 14.9266 15.6831 17.0713 17.0713C15.6824 14.9261 14.5011 12.2238 14.501 10C14.5003 7.77686 15.682 5.07345 17.0703 2.92871Z" fill="white"/>
</mask>
<g mask="url(#mask0_4221_15)">
<rect x="9.43945" y="8.65625" width="11.8923" height="10.9835" transform="rotate(45 9.43945 8.65625)" fill="url(#paint0_linear_4221_15)"/>
<rect x="16.7749" width="15.9417" height="11.8623" transform="rotate(45 16.7749 0)" fill="url(#paint1_linear_4221_15)"/>
<rect x="10.3364" y="-4.64648" width="10.1212" height="20.6742" transform="rotate(45 10.3364 -4.64648)" fill="url(#paint2_linear_4221_15)"/>
</g>
</g>
<defs>
<linearGradient id="paint0_linear_4221_15" x1="20.7912" y1="8.65625" x2="11.0836" y2="20.9391" gradientUnits="userSpaceOnUse">
<stop stop-color="#FDAE4E"/>
<stop offset="1" stop-color="#FF4447"/>
</linearGradient>
<linearGradient id="paint1_linear_4221_15" x1="17.4995" y1="1.31804" x2="26.1767" y2="15.3941" gradientUnits="userSpaceOnUse">
<stop stop-color="#FFC056"/>
<stop offset="1" stop-color="#FFB100"/>
</linearGradient>
<linearGradient id="paint2_linear_4221_15" x1="15.8571" y1="-4.64648" x2="15.8571" y2="16.0278" gradientUnits="userSpaceOnUse">
<stop stop-color="#D5FF00"/>
<stop offset="1" stop-color="#00BFFF"/>
</linearGradient>
<clipPath id="clip0_4221_15">
<rect width="20" height="20" rx="10" fill="white"/>
</clipPath>
</defs>
</svg>
