<svg xmlns:xlink="http://www.w3.org/1999/xlink" xmlns="http://www.w3.org/2000/svg" width="20" height="20" viewBox="0 0 20 20" fill="none" class="size-full"><path d="M17.2422 1H2.75781C1.787 1 1 1.787 1 2.75781V17.2422C1 18.213 1.787 19 2.75781 19H17.2422C18.213 19 19 18.213 19 17.2422V2.75781C19 1.787 18.213 1 17.2422 1Z" fill="#3178C6"></path><path fill-rule="evenodd" clip-rule="evenodd" d="M12.1424 15.3235V17.0835C12.4285 17.2301 12.7669 17.3401 13.1575 17.4134C13.5482 17.4868 13.9599 17.5234 14.3927 17.5234C14.8146 17.5234 15.2153 17.4831 15.5949 17.4024C15.9746 17.3218 16.3075 17.1889 16.5936 17.0037C16.8797 16.8186 17.1062 16.5765 17.2731 16.2777C17.44 15.9789 17.5234 15.6095 17.5234 15.1695C17.5234 14.8505 17.4758 14.5709 17.3804 14.3308C17.285 14.0906 17.1475 13.8771 16.9677 13.6901C16.788 13.5031 16.5725 13.3353 16.3212 13.1868C16.07 13.0383 15.7866 12.8981 15.4712 12.7661C15.2401 12.6707 15.0328 12.5782 14.8494 12.4884C14.666 12.3985 14.5101 12.3068 14.3817 12.2134C14.2533 12.1199 14.1543 12.0209 14.0846 11.9164C14.0149 11.8118 13.9801 11.6936 13.9801 11.5616C13.9801 11.4406 14.0113 11.3315 14.0736 11.2344C14.136 11.1372 14.224 11.0538 14.3377 10.9841C14.4514 10.9145 14.5908 10.8604 14.7559 10.8219C14.921 10.7834 15.1043 10.7642 15.3061 10.7642C15.4528 10.7642 15.6078 10.7752 15.771 10.7971C15.9342 10.8191 16.0984 10.8531 16.2635 10.8989C16.4285 10.9447 16.589 11.0025 16.7449 11.0721C16.9008 11.1418 17.0448 11.2225 17.1768 11.3141V9.66967C16.909 9.56702 16.6165 9.49094 16.2992 9.44144C15.9819 9.39194 15.6179 9.36719 15.2071 9.36719C14.7889 9.36719 14.3927 9.41212 14.0186 9.50194C13.6445 9.59177 13.3153 9.732 13.031 9.92266C12.7467 10.1133 12.522 10.3562 12.357 10.6514C12.1919 10.9465 12.1094 11.2994 12.1094 11.7101C12.1094 12.2344 12.2607 12.6818 12.5633 13.0521C12.8659 13.4224 13.3253 13.7359 13.9416 13.9926C14.1837 14.0916 14.4093 14.1887 14.6183 14.284C14.8274 14.3794 15.0081 14.4784 15.1603 14.581C15.3125 14.6837 15.4326 14.7955 15.5207 14.9165C15.6087 15.0375 15.6527 15.175 15.6527 15.329C15.6527 15.4427 15.6252 15.5481 15.5702 15.6452C15.5152 15.7424 15.4317 15.8267 15.3198 15.8982C15.208 15.9697 15.0686 16.0256 14.9017 16.066C14.7348 16.1063 14.5395 16.1265 14.3157 16.1265C13.9342 16.1265 13.5564 16.0596 13.1823 15.9257C12.8081 15.7919 12.4615 15.5912 12.1424 15.3235ZM9.18367 10.9873H11.4414V9.54297H5.14844V10.9873H7.39513V17.418H9.18367V10.9873Z" fill="#FFFFFF"></path></svg>