<svg
  xmlns="http://www.w3.org/2000/svg"
  width="24"
  height="24"
  viewBox="0 0 24 24"
  fill="none"
  stroke="currentColor"
  stroke-width="1.4"
  stroke-linecap="round"
  stroke-linejoin="round"
>
  <path d="M15 2H6a2 2 0 0 0-2 2v16a2 2 0 0 0 2 2h12a2 2 0 0 0 2-2V7Z"  vector-effect="non-scaling-stroke"/>
  <path d="M14 2v4a2 2 0 0 0 2 2h4"  vector-effect="non-scaling-stroke"/>
  <path d="M8 15h.01"  vector-effect="non-scaling-stroke"/>
  <path d="M11.5 13.5a2.5 2.5 0 0 1 0 3"  vector-effect="non-scaling-stroke"/>
  <path d="M15 12a5 5 0 0 1 0 6"  vector-effect="non-scaling-stroke"/>
</svg>
