<svg
  xmlns="http://www.w3.org/2000/svg"
  width="24"
  height="24"
  viewBox="0 0 24 24"
  fill="none"
  stroke="currentColor"
  stroke-width="1.4"
  stroke-linecap="round"
  stroke-linejoin="round"
>
  <path d="m10 20-1.25-2.5L6 18"  vector-effect="non-scaling-stroke"/>
  <path d="M10 4 8.75 6.5 6 6"  vector-effect="non-scaling-stroke"/>
  <path d="m14 20 1.25-2.5L18 18"  vector-effect="non-scaling-stroke"/>
  <path d="m14 4 1.25 2.5L18 6"  vector-effect="non-scaling-stroke"/>
  <path d="m17 21-3-6h-4"  vector-effect="non-scaling-stroke"/>
  <path d="m17 3-3 6 1.5 3"  vector-effect="non-scaling-stroke"/>
  <path d="M2 12h6.5L10 9"  vector-effect="non-scaling-stroke"/>
  <path d="m20 10-1.5 2 1.5 2"  vector-effect="non-scaling-stroke"/>
  <path d="M22 12h-6.5L14 15"  vector-effect="non-scaling-stroke"/>
  <path d="m4 10 1.5 2L4 14"  vector-effect="non-scaling-stroke"/>
  <path d="m7 21 3-6-1.5-3"  vector-effect="non-scaling-stroke"/>
  <path d="m7 3 3 6h4"  vector-effect="non-scaling-stroke"/>
</svg>
