<svg width="16" height="16" viewBox="0 0 16 16" fill="none" xmlns="http://www.w3.org/2000/svg">
<path d="M2.7002 2.66667C2.7002 1.1907 3.89089 0 5.36686 0H8.03353V5.33333H5.36686C3.89089 5.33333 2.7002 4.14264 2.7002 2.66667Z" fill="#F24E1E"/>
<path d="M8.0332 0H10.6999C12.1758 0 13.3665 1.1907 13.3665 2.66667C13.3665 4.14264 12.1758 5.33333 10.6999 5.33333H8.0332V0Z" fill="#FF7262"/>
<path d="M2.7002 7.99967C2.7002 6.52371 3.89089 5.33301 5.36686 5.33301H8.03353V10.6663H5.36686C3.89089 10.6663 2.7002 9.47564 2.7002 7.99967Z" fill="#A259FF"/>
<path d="M13.3665 7.99967C13.3665 9.47564 12.1758 10.6663 10.6999 10.6663C9.2239 10.6663 8.0332 9.47564 8.0332 7.99967C8.0332 6.52371 9.2239 5.33301 10.6999 5.33301C12.1758 5.33301 13.3665 6.52371 13.3665 7.99967Z" fill="#1ABCFE"/>
<path d="M5.36686 16.0003C6.84283 16.0003 8.03353 14.8096 8.03353 13.3337V10.667H5.36686C3.89089 10.667 2.7002 11.8577 2.7002 13.3337C2.7002 14.8096 3.89089 16.0003 5.36686 16.0003Z" fill="#0ACF83"/>
</svg>
